<?xml version="1.0" standalone="no"?>
<!DOCTYPE svg PUBLIC "-//W3C//DTD SVG 20010904//EN"
 "http://www.w3.org/TR/2001/REC-SVG-20010904/DTD/svg10.dtd">
<svg version="1.0" xmlns="http://www.w3.org/2000/svg"
 width="2500.000000pt" height="2500.000000pt" viewBox="0 0 2500.000000 2500.000000"
 preserveAspectRatio="xMidYMid meet">

<g transform="translate(0.000000,2500.000000) scale(0.100000,-0.100000)"
fill="#000000" stroke="none">
<path d="M7730 24102 c0 -381 10 -544 50 -802 11 -69 20 -137 20 -150 0 -14 9
-68 20 -120 11 -52 30 -140 41 -195 34 -167 84 -361 110 -429 11 -27 19 -56
19 -64 0 -20 11 -53 90 -272 55 -152 89 -238 115 -295 13 -27 42 -90 65 -140
87 -187 170 -344 255 -480 14 -22 28 -47 32 -55 4 -8 11 -19 15 -25 21 -25 58
-87 58 -95 0 -6 4 -10 8 -10 5 0 13 -10 19 -22 23 -51 302 -415 329 -431 8 -4
14 -12 14 -16 0 -25 357 -384 513 -516 92 -78 190 -154 367 -285 32 -24 71
-50 111 -75 9 -5 27 -17 40 -26 61 -42 169 -109 217 -135 29 -16 69 -39 90
-51 75 -44 365 -193 377 -193 3 0 41 -16 83 -36 42 -19 95 -43 117 -53 22 -10
61 -28 88 -39 26 -12 52 -22 58 -22 6 0 25 -6 42 -14 18 -7 58 -23 90 -34 31
-12 81 -30 110 -41 74 -28 423 -132 599 -179 43 -11 41 -14 57 83 30 193 41
353 41 628 0 419 -34 710 -131 1142 -12 50 -27 113 -35 140 -31 114 -58 203
-75 250 -10 28 -25 75 -35 105 -9 30 -25 73 -35 96 -11 23 -19 44 -19 47 0 26
-199 449 -260 552 -9 17 -26 46 -38 66 -41 74 -48 84 -79 131 -18 26 -33 50
-33 53 0 2 -14 24 -30 47 -17 24 -47 66 -66 93 -85 123 -188 261 -214 285 -3
3 -27 32 -55 65 -127 154 -465 488 -597 590 -21 16 -38 33 -38 37 0 4 -6 8
-13 8 -7 0 -20 8 -29 18 -8 9 -29 27 -44 38 -16 12 -56 43 -89 69 -33 25 -75
55 -92 67 -18 11 -33 24 -33 28 0 4 -8 10 -17 14 -10 3 -30 14 -44 23 -29 20
-143 96 -229 152 -30 20 -64 41 -75 47 -11 6 -36 20 -55 32 -19 12 -48 28 -65
37 -16 8 -46 25 -65 36 -36 23 -195 107 -310 164 -116 58 -347 165 -356 165
-4 0 -25 8 -48 19 -23 10 -63 28 -91 39 -27 11 -72 29 -100 40 -52 21 -91 35
-188 70 -31 12 -81 30 -110 41 -28 10 -133 44 -232 75 -99 31 -192 61 -207 66
l-28 8 0 -366z"/>
<path d="M15775 24317 c-33 -11 -82 -28 -110 -37 -27 -10 -129 -43 -225 -74
-96 -31 -195 -65 -220 -75 -25 -10 -70 -26 -100 -35 -30 -10 -75 -26 -100 -36
-25 -10 -72 -28 -105 -40 -33 -12 -74 -29 -92 -36 -17 -8 -36 -14 -42 -14 -10
0 -37 -11 -147 -61 -23 -11 -45 -19 -49 -19 -4 0 -29 -10 -54 -21 -25 -12 -55
-25 -66 -30 -32 -12 -235 -100 -295 -127 -117 -52 -329 -150 -355 -165 -11 -6
-60 -30 -110 -55 -49 -24 -97 -48 -105 -53 -8 -5 -34 -18 -58 -30 -23 -12 -45
-25 -48 -30 -3 -5 -14 -9 -24 -9 -10 0 -20 -4 -22 -9 -1 -5 -34 -25 -73 -45
-38 -20 -86 -46 -105 -58 -19 -11 -55 -32 -80 -46 -25 -13 -81 -47 -125 -74
-44 -27 -89 -55 -100 -61 -180 -106 -539 -353 -682 -469 -40 -32 -77 -58 -82
-58 -5 0 -11 -7 -15 -15 -3 -8 -12 -15 -21 -15 -8 0 -15 -4 -15 -8 0 -4 -37
-37 -82 -72 -45 -36 -89 -72 -97 -81 -9 -9 -54 -49 -101 -90 -47 -40 -102 -90
-123 -109 l-39 -36 24 -42 c13 -24 33 -59 45 -80 56 -96 223 -444 223 -465 0
-7 5 -18 10 -23 17 -17 144 -370 182 -504 11 -41 27 -97 35 -125 16 -55 32
-123 69 -295 32 -148 39 -188 58 -340 8 -69 20 -163 26 -210 57 -458 26 -1051
-79 -1510 -12 -52 -27 -120 -34 -150 -6 -30 -12 -57 -13 -59 -2 -1 -36 6 -76
17 -103 28 -220 58 -308 77 -73 17 -147 36 -280 74 -262 75 -321 93 -435 136
-38 14 -101 36 -140 49 -38 13 -86 31 -105 39 -41 18 -156 65 -185 76 -39 15
-305 140 -400 188 -38 20 -97 49 -130 66 -33 16 -67 35 -75 42 -42 34 -47 29
-64 -83 -23 -139 -45 -475 -46 -675 -1 -371 33 -694 116 -1117 21 -107 78
-321 119 -445 40 -120 37 -118 127 -86 29 11 80 27 113 36 60 16 284 86 340
106 17 6 71 24 120 40 50 15 122 40 160 54 39 14 113 41 165 60 52 18 120 43
150 55 30 12 69 26 85 31 17 6 37 14 46 19 8 4 47 20 85 35 38 14 112 45 164
67 52 22 111 47 130 55 19 8 53 23 75 34 22 10 69 32 105 48 215 97 389 182
550 268 91 48 122 66 208 114 20 12 62 35 92 52 30 16 62 35 70 41 14 11 43
27 85 50 11 6 31 18 45 27 116 73 166 105 175 112 6 4 53 36 105 70 97 63 129
86 257 179 86 63 336 257 343 267 3 4 32 29 65 55 104 84 202 176 384 357 199
200 225 228 300 319 30 36 57 67 60 70 24 19 301 385 301 398 0 5 9 17 20 27
11 10 20 22 20 28 0 5 10 22 23 37 12 15 34 47 48 71 15 24 48 77 73 117 25
41 46 75 46 77 0 1 24 45 53 96 80 143 237 468 237 492 0 6 8 26 18 42 10 17
21 39 25 50 3 11 17 52 32 90 75 204 144 428 188 620 74 316 94 440 127 795
43 443 10 1117 -71 1482 -10 48 -19 95 -19 104 0 21 -30 150 -72 309 -16 61
-33 124 -37 141 -16 62 -19 63 -86 41z"/>
<path d="M4290 10060 l0 -8220 -305 0 -305 0 0 -715 0 -715 1090 0 1090 0 0
1360 0 1360 6675 0 6675 0 0 2340 0 2340 -2600 0 -2600 0 0 -1625 0 -1625
-4072 3 -4073 2 -3 6858 -2 6857 -785 0 -785 0 0 -8220z m13330 -4590 l0 -910
-1007 2 -1008 3 -3 908 -2 907 1010 0 1010 0 0 -910z"/>
<path d="M7170 13800 l0 -4480 6090 0 c5407 0 6090 2 6090 15 0 13 87 15 725
15 l725 0 0 -4450 0 -4450 785 0 785 0 0 8120 0 8120 295 0 295 0 0 715 0 715
-1080 0 -1080 0 0 -3685 0 -3685 -725 0 -725 0 0 1390 0 1390 -790 0 -790 0 0
-1390 0 -1390 -945 0 -945 0 0 1390 0 1390 -2077 0 -2078 1 40 36 c22 20 72
66 111 102 39 36 111 102 160 146 96 87 168 153 253 231 63 58 81 75 197 179
48 44 111 101 139 127 27 26 61 56 75 68 14 12 45 41 70 64 25 23 101 94 170
156 145 133 203 185 240 220 15 14 67 61 116 105 49 44 116 105 149 136 33 30
82 75 109 100 27 24 61 55 76 69 15 14 67 61 116 105 49 44 122 111 164 149
137 127 196 180 285 261 49 44 101 91 116 105 14 14 66 61 115 105 49 44 91
82 94 85 5 6 209 193 299 275 67 60 91 83 188 171 48 45 141 129 205 188 l118
106 -1113 0 -1112 0 -45 -43 c-25 -24 -88 -81 -140 -127 -52 -46 -97 -86 -100
-90 -6 -8 -350 -323 -394 -360 -16 -14 -48 -43 -71 -65 -41 -39 -158 -146
-285 -260 -36 -32 -114 -104 -174 -159 -60 -56 -114 -106 -120 -111 -6 -6 -56
-51 -111 -100 -55 -49 -129 -117 -165 -151 -69 -65 -94 -88 -156 -143 -22 -19
-62 -55 -89 -80 -28 -25 -92 -84 -144 -131 -51 -47 -110 -101 -130 -120 -20
-19 -99 -91 -176 -160 -77 -69 -153 -138 -171 -155 -59 -57 -129 -121 -216
-199 l-88 -77 0 -1100 0 -1099 1990 0 1990 0 -2 -667 -3 -668 -2780 0 -2780 0
-3 3763 -2 3762 -785 0 -785 0 0 -4480z"/>
<path d="M17780 17545 l0 -715 780 0 780 0 0 715 0 715 -780 0 -780 0 0 -715z"/>
<path d="M17770 15665 l0 -715 785 0 785 0 0 715 0 715 -785 0 -785 0 0 -715z"/>
<path d="M7170 1125 l0 -715 6090 0 6090 0 0 715 0 715 -6090 0 -6090 0 0
-715z m2384 450 c21 -33 20 -57 -4 -83 -25 -26 -81 -30 -104 -6 -9 8 -16 31
-16 49 0 44 22 65 70 65 29 0 41 -6 54 -25z m155 -1 c12 -15 21 -32 21 -39 0
-7 -9 -24 -21 -39 -39 -49 -129 -24 -129 37 0 67 87 94 129 41z m576 -297 l0
-317 103 0 104 0 -4 179 c-3 175 -4 180 -28 206 l-25 27 235 -4 c198 -4 241
-7 274 -22 61 -27 102 -63 138 -119 l33 -52 0 -189 0 -189 -47 -28 c-41 -24
-48 -26 -59 -13 -31 38 -42 39 -621 44 l-566 5 -26 24 c-15 14 -30 39 -35 55
l-8 31 -22 -37 -23 -38 -224 0 c-190 0 -229 -2 -249 -16 l-25 -16 0 168 c0
157 2 173 24 219 27 58 83 116 133 140 83 40 283 45 339 9 l27 -18 -12 22 -12
23 103 -3 103 -3 3 -202 2 -203 96 0 95 0 -3 294 -3 294 -25 27 -24 26 114 -3
115 -3 0 -318z m1125 3 l0 -320 325 0 325 0 0 75 c0 96 -19 138 -72 160 -30
12 -80 15 -223 15 l-185 0 0 78 0 77 113 85 c61 46 114 87 117 90 3 3 21 18
41 33 35 26 40 27 168 27 88 0 130 -3 126 -10 -6 -10 -143 -118 -209 -165 -77
-55 -77 -51 7 -58 87 -6 144 -29 204 -81 66 -57 83 -104 83 -224 l0 -102 125
0 125 0 0 174 c0 174 0 175 -26 206 l-26 31 113 -3 114 -3 3 -202 2 -203 130
0 130 0 0 174 c0 174 0 175 -27 206 l-26 32 234 -5 c269 -4 287 -8 365 -79 76
-70 84 -101 84 -317 l0 -176 -50 -27 c-40 -23 -51 -25 -57 -13 -4 7 -22 21
-38 29 -27 14 -145 16 -1056 16 -670 0 -1036 4 -1055 10 -58 20 -59 25 -64
392 -5 331 -5 337 -28 367 l-23 31 116 0 115 0 0 -320z m2804 295 l24 -25 16
25 c13 20 25 25 56 25 48 0 70 -21 70 -65 0 -65 -88 -91 -130 -37 -14 18 -23
23 -27 14 -27 -66 -143 -46 -143 25 0 60 90 86 134 38z m-1689 -15 c31 -12 46
-46 33 -80 -12 -32 -25 -40 -67 -40 -82 0 -98 95 -21 123 22 8 26 8 55 -3z
m183 -17 c17 -23 15 -63 -5 -85 -20 -23 -85 -24 -107 -2 -30 29 -16 92 24 107
24 10 74 -2 88 -20z m1603 -210 c44 -39 45 -38 21 25 -3 10 17 12 94 10 l99
-3 3 -308 2 -308 -31 23 c-29 22 -43 23 -227 29 -188 5 -199 7 -249 32 -166
86 -205 308 -77 441 66 69 128 91 266 95 54 1 61 -2 99 -36z m697 13 c65 -23
119 -73 152 -139 27 -54 30 -70 30 -154 l0 -93 305 0 305 0 -10 26 c-6 14 -10
47 -10 74 0 60 -24 114 -57 129 -13 6 -81 11 -154 11 -131 0 -178 -10 -193
-42 -3 -7 -4 7 -2 32 2 25 18 76 35 114 l31 69 148 -5 c165 -5 204 -17 278
-81 61 -54 77 -95 83 -217 l6 -105 33 -3 32 -3 0 -80 0 -79 -690 0 -690 0 0
80 0 80 185 0 185 0 0 80 c0 134 -25 160 -150 160 -75 0 -118 -12 -137 -37
-11 -14 -13 2 -13 88 0 58 3 109 8 114 12 13 243 -2 290 -19z m1792 17 c0 -4
-10 -17 -22 -31 -22 -23 -23 -31 -28 -280 -5 -239 -7 -260 -27 -297 -47 -87
-128 -136 -239 -143 l-74 -5 0 47 c0 45 1 46 30 46 44 0 107 35 125 71 l16 30
-195 -3 c-184 -3 -196 -4 -225 -26 l-31 -23 0 199 0 199 31 61 c43 87 107 135
204 152 52 10 435 12 435 3z"/>
<path d="M9435 1200 c-39 -26 -43 -40 -44 -137 l-1 -83 135 0 135 0 0 120 0
120 -97 0 c-81 0 -103 -4 -128 -20z"/>
<path d="M10668 1085 l-3 -125 115 0 c63 0 125 -3 138 -6 22 -6 22 -5 22 85 0
66 -4 98 -16 116 -23 36 -83 55 -174 55 l-79 0 -3 -125z"/>
<path d="M13100 1085 l0 -125 120 -2 c66 -1 128 -2 138 -2 15 -1 17 9 16 92 0
81 -3 95 -23 116 -30 32 -84 46 -175 46 l-76 0 0 -125z"/>
<path d="M14105 1188 c-39 -21 -55 -51 -55 -107 0 -49 3 -57 36 -87 l35 -34
115 0 114 0 0 120 0 120 -112 0 c-63 0 -122 -6 -133 -12z"/>
<path d="M16365 1188 c-46 -27 -54 -49 -55 -140 l0 -88 135 0 135 0 0 120 0
120 -97 0 c-55 0 -107 -6 -118 -12z"/>
</g>
</svg>
